<?xml version="1.0" standalone="no"?>
<!DOCTYPE svg PUBLIC "-//W3C//DTD SVG 20010904//EN"
 "http://www.w3.org/TR/2001/REC-SVG-20010904/DTD/svg10.dtd">
<svg version="1.0" xmlns="http://www.w3.org/2000/svg"
 width="640.000000pt" height="640.000000pt" viewBox="0 0 640.000000 640.000000"
 preserveAspectRatio="xMidYMid meet">

<g transform="translate(0.000000,640.000000) scale(0.100000,-0.100000)"
fill="#000000" stroke="none">
<path d="M2940 6389 c-409 -36 -766 -134 -1136 -313 -552 -268 -996 -669
-1329 -1200 -79 -128 -218 -409 -268 -546 -275 -743 -275 -1514 -1 -2260 48
-129 198 -433 275 -555 473 -752 1224 -1275 2079 -1448 239 -49 366 -61 640
-61 188 0 289 5 385 18 390 52 710 150 1046 318 612 306 1111 801 1419 1408
410 809 461 1720 143 2580 -79 216 -246 528 -387 725 -198 277 -474 553 -751
751 -197 141 -509 308 -725 387 -450 166 -940 235 -1390 196z m440 -2555 c218
-65 389 -238 456 -460 25 -82 25 -266 0 -348 -67 -224 -238 -395 -462 -462
-82 -25 -266 -25 -348 0 -224 67 -395 238 -462 462 -25 82 -25 266 0 348 76
253 288 440 541 480 56 8 220 -3 275 -20z m-976 -796 c68 -316 299 -554 609
-628 110 -27 264 -27 374 0 309 74 542 315 609 628 l17 82 1114 0 1113 0 0
-59 c0 -32 -5 -105 -11 -162 -132 -1295 -1054 -2351 -2319 -2659 -256 -62
-373 -74 -710 -74 -266 0 -323 2 -445 22 -669 105 -1234 391 -1705 862 -346
346 -592 742 -739 1190 -89 272 -151 609 -151 821 l0 59 1113 0 1114 0 17 -82z"/>
<path d="M3127 3600 c-73 -13 -156 -57 -213 -114 -159 -160 -159 -412 0 -572
229 -228 615 -112 681 205 59 280 -185 530 -468 481z m205 -97 c65 -30 133
-95 165 -162 37 -75 40 -200 6 -273 -30 -66 -96 -133 -162 -165 -48 -24 -68
-28 -141 -28 -73 0 -93 4 -141 28 -223 109 -253 402 -57 560 85 68 227 85 330
40z"/>
</g>
</svg>
